<svg preserveAspectRatio="none" overflow="visible" style="display: block;" width="90.5" height="34.5" viewBox="0 0 90.5 34.5" fill="none" xmlns="http://www.w3.org/2000/svg">
<g id="&#231;&#188;&#150;&#231;&#187;&#132; 3">
<rect x="0.25" y="0.25" width="90" height="34" rx="17" stroke="black" stroke-opacity="0.1" stroke-width="0.5" stroke-linejoin="bevel"/>
<path id="Union" d="M20.6674 15.083C21.8638 15.0832 22.8334 16.0535 22.8334 17.25C22.8334 18.4465 21.8638 19.4168 20.6674 19.417C19.4707 19.417 18.5004 18.4466 18.5004 17.25C18.5004 16.0534 19.4707 15.083 20.6674 15.083ZM29.0004 15.083C30.1969 15.083 31.1673 16.0534 31.1674 17.25C31.1674 18.4466 30.1969 19.4169 29.0004 19.417C27.8037 19.417 26.8334 18.4466 26.8334 17.25C26.8334 16.0534 27.8037 15.083 29.0004 15.083ZM37.3334 15.083C38.53 15.083 39.5004 16.0534 39.5004 17.25C39.5004 18.4466 38.53 19.417 37.3334 19.417C36.1369 19.4168 35.1674 18.4465 35.1674 17.25C35.1674 16.0535 36.1369 15.0832 37.3334 15.083Z" fill="black" fill-opacity="0.8"/>
<rect id="&#231;&#159;&#169;&#229;&#189;&#162;" x="49.5004" y="7.08333" width="0.5" height="20.3333" fill="black" fill-opacity="0.1"/>
<path id="&#232;&#129;&#148;&#233;&#155;&#134; 2" d="M70.684 11.4814C70.9925 11.1729 71.474 11.173 71.7826 11.4814C72.0719 11.7707 72.0719 12.2529 71.7826 12.5615L67.0922 17.2509L71.7826 21.9335C72.0719 22.2422 72.0719 22.7245 71.7826 23.0331C71.474 23.3221 70.9925 23.3222 70.684 23.0331L66.0013 18.3417L61.3109 23.0331C61.0024 23.3221 60.5211 23.3221 60.2318 23.0331C59.9232 22.7245 59.9232 22.2422 60.2318 21.9335L64.9135 17.2509L60.2318 12.5615C59.9232 12.2529 59.9232 11.7707 60.2318 11.4814C60.5211 11.173 61.0024 11.1731 61.3109 11.4814L66.0013 16.163L70.684 11.4814Z" fill="black" fill-opacity="0.8"/>
</g>
</svg>
